ffmpeg version 8.1-full_build-www.gyan.dev Copyright (c) 2000-2026 the FFmpeg developers
  built with gcc 15.2.0 (Rev11, Built by MSYS2 project)
  configuration: --enable-gpl --enable-version3 --enable-static --disable-w32threads --disable-autodetect --enable-cairo --enable-fontconfig --enable-iconv --enable-gnutls --enable-lcms2 --enable-libxml2 --enable-gmp --enable-bzlib --enable-lzma --enable-libsnappy --enable-zlib --enable-librist --enable-libsrt --enable-libssh --enable-libzmq --enable-avisynth --enable-libbluray --enable-libcaca --enable-libdvdnav --enable-libdvdread --enable-sdl2 --enable-libaribb24 --enable-libaribcaption --enable-libdav1d --enable-libdavs2 --enable-libopenjpeg --enable-libquirc --enable-libuavs3d --enable-libxevd --enable-libzvbi --enable-liboapv --enable-libqrencode --enable-librav1e --enable-libsvtav1 --enable-libvvenc --enable-libwebp --enable-libx264 --enable-libx265 --enable-libxavs2 --enable-libxeve --enable-libxvid --enable-libaom --enable-libjxl --enable-libsvtjpegxs --enable-libvpx --enable-mediafoundation --enable-libass --enable-frei0r --enable-libfreetype --enable-libfribidi --enable-libharfbuzz --enable-liblensfun --enable-libvidstab --enable-libvmaf --enable-libzimg --enable-amf --enable-cuda-llvm --enable-cuvid --enable-dxva2 --enable-d3d11va --enable-d3d12va --enable-ffnvcodec --enable-libvpl --enable-nvdec --enable-nvenc --enable-vaapi --enable-libshaderc --enable-vulkan --enable-libplacebo --enable-opencl --enable-libcdio --enable-openal --enable-libgme --enable-libmodplug --enable-libopenmpt --enable-libopencore-amrwb --enable-libmp3lame --enable-libshine --enable-libtheora --enable-libtwolame --enable-libvo-amrwbenc --enable-libcodec2 --enable-libilbc --enable-libgsm --enable-liblc3 --enable-libopencore-amrnb --enable-libopus --enable-libspeex --enable-libvorbis --enable-ladspa --enable-libbs2b --enable-libflite --enable-libmysofa --enable-librubberband --enable-libsoxr --enable-chromaprint --enable-whisper
  libavutil      60. 26.100 / 60. 26.100
  libavcodec     62. 28.100 / 62. 28.100
  libavformat    62. 12.100 / 62. 12.100
  libavdevice    62.  3.100 / 62.  3.100
  libavfilter    11. 14.100 / 11. 14.100
  libswscale      9.  5.100 /  9.  5.100
  libswresample   6.  3.100 /  6.  3.100
[in#0/mp3 @ 0000012421a299c0] Estimating duration from bitrate, this may be inaccurate
Input #0, mp3, from 'C:\Users\SHARKG~1.SHA\AppData\Local\Temp\timeline_tts_caet81p2\seg_001.mp3':
  Duration: 00:00:09.55, start: 0.000000, bitrate: 48 kb/s
  Stream #0:0: Audio: mp3 (mp3float), 24000 Hz, mono, fltp, 48 kb/s
[in#1/mp3 @ 0000012421a29c80] Estimating duration from bitrate, this may be inaccurate
Input #1, mp3, from 'C:\Users\SHARKG~1.SHA\AppData\Local\Temp\timeline_tts_caet81p2\seg_002.mp3':
  Duration: 00:00:09.07, start: 0.000000, bitrate: 48 kb/s
  Stream #1:0: Audio: mp3 (mp3float), 24000 Hz, mono, fltp, 48 kb/s
[in#2/mp3 @ 0000012421a29480] Estimating duration from bitrate, this may be inaccurate
Input #2, mp3, from 'C:\Users\SHARKG~1.SHA\AppData\Local\Temp\timeline_tts_caet81p2\seg_003.mp3':
  Duration: 00:00:10.22, start: 0.000000, bitrate: 48 kb/s
  Stream #2:0: Audio: mp3 (mp3float), 24000 Hz, mono, fltp, 48 kb/s
[in#3/mp3 @ 0000012421a29740] Estimating duration from bitrate, this may be inaccurate
Input #3, mp3, from 'C:\Users\SHARKG~1.SHA\AppData\Local\Temp\timeline_tts_caet81p2\seg_004.mp3':
  Duration: 00:00:09.70, start: 0.000000, bitrate: 48 kb/s
  Stream #3:0: Audio: mp3 (mp3float), 24000 Hz, mono, fltp, 48 kb/s
[in#4/mp3 @ 0000012421a29f40] Estimating duration from bitrate, this may be inaccurate
Input #4, mp3, from 'C:\Users\SHARKG~1.SHA\AppData\Local\Temp\timeline_tts_caet81p2\seg_005.mp3':
  Duration: 00:00:10.18, start: 0.000000, bitrate: 48 kb/s
  Stream #4:0: Audio: mp3 (mp3float), 24000 Hz, mono, fltp, 48 kb/s
[in#5/mp3 @ 0000012421a28440] Estimating duration from bitrate, this may be inaccurate
Input #5, mp3, from 'C:\Users\SHARKG~1.SHA\AppData\Local\Temp\timeline_tts_caet81p2\seg_006.mp3':
  Duration: 00:00:10.13, start: 0.000000, bitrate: 48 kb/s
  Stream #5:0: Audio: mp3 (mp3float), 24000 Hz, mono, fltp, 48 kb/s
[in#6/mp3 @ 0000012421a28700] Estimating duration from bitrate, this may be inaccurate
Input #6, mp3, from 'C:\Users\SHARKG~1.SHA\AppData\Local\Temp\timeline_tts_caet81p2\seg_007.mp3':
  Duration: 00:00:10.56, start: 0.000000, bitrate: 48 kb/s
  Stream #6:0: Audio: mp3 (mp3float), 24000 Hz, mono, fltp, 48 kb/s
[in#7/mp3 @ 0000012421a289c0] Estimating duration from bitrate, this may be inaccurate
Input #7, mp3, from 'C:\Users\SHARKG~1.SHA\AppData\Local\Temp\timeline_tts_caet81p2\seg_008.mp3':
  Duration: 00:00:09.58, start: 0.000000, bitrate: 48 kb/s
  Stream #7:0: Audio: mp3 (mp3float), 24000 Hz, mono, fltp, 48 kb/s
[in#8/mp3 @ 0000012421a28f00] Estimating duration from bitrate, this may be inaccurate
Input #8, mp3, from 'C:\Users\SHARKG~1.SHA\AppData\Local\Temp\timeline_tts_caet81p2\seg_009.mp3':
  Duration: 00:00:10.30, start: 0.000000, bitrate: 48 kb/s
  Stream #8:0: Audio: mp3 (mp3float), 24000 Hz, mono, fltp, 48 kb/s
[in#9/mp3 @ 0000012421a291c0] Estimating duration from bitrate, this may be inaccurate
Input #9, mp3, from 'C:\Users\SHARKG~1.SHA\AppData\Local\Temp\timeline_tts_caet81p2\seg_010.mp3':
  Duration: 00:00:10.66, start: 0.000000, bitrate: 48 kb/s
  Stream #9:0: Audio: mp3 (mp3float), 24000 Hz, mono, fltp, 48 kb/s
[in#10/mp3 @ 0000012421a28c80] Estimating duration from bitrate, this may be inaccurate
Input #10, mp3, from 'C:\Users\SHARKG~1.SHA\AppData\Local\Temp\timeline_tts_caet81p2\seg_011.mp3':
  Duration: 00:00:08.95, start: 0.000000, bitrate: 48 kb/s
  Stream #10:0: Audio: mp3 (mp3float), 24000 Hz, mono, fltp, 48 kb/s
[in#11/mp3 @ 0000012421d72000] Estimating duration from bitrate, this may be inaccurate
Input #11, mp3, from 'C:\Users\SHARKG~1.SHA\AppData\Local\Temp\timeline_tts_caet81p2\seg_012.mp3':
  Duration: 00:00:10.92, start: 0.000000, bitrate: 48 kb/s
  Stream #11:0: Audio: mp3 (mp3float), 24000 Hz, mono, fltp, 48 kb/s
[in#12/mp3 @ 0000012421d72840] Estimating duration from bitrate, this may be inaccurate
Input #12, mp3, from 'C:\Users\SHARKG~1.SHA\AppData\Local\Temp\timeline_tts_caet81p2\seg_013.mp3':
  Duration: 00:00:11.81, start: 0.000000, bitrate: 48 kb/s
  Stream #12:0: Audio: mp3 (mp3float), 24000 Hz, mono, fltp, 48 kb/s
[in#13/mp3 @ 0000012421d73840] Estimating duration from bitrate, this may be inaccurate
Input #13, mp3, from 'C:\Users\SHARKG~1.SHA\AppData\Local\Temp\timeline_tts_caet81p2\seg_014.mp3':
  Duration: 00:00:10.51, start: 0.000000, bitrate: 48 kb/s
  Stream #13:0: Audio: mp3 (mp3float), 24000 Hz, mono, fltp, 48 kb/s
[in#14/mp3 @ 0000012421d71ac0] Estimating duration from bitrate, this may be inaccurate
Input #14, mp3, from 'C:\Users\SHARKG~1.SHA\AppData\Local\Temp\timeline_tts_caet81p2\seg_015.mp3':
  Duration: 00:00:10.37, start: 0.000000, bitrate: 48 kb/s
  Stream #14:0: Audio: mp3 (mp3float), 24000 Hz, mono, fltp, 48 kb/s
[in#15/mp3 @ 0000012421d70a80] Estimating duration from bitrate, this may be inaccurate
Input #15, mp3, from 'C:\Users\SHARKG~1.SHA\AppData\Local\Temp\timeline_tts_caet81p2\seg_016.mp3':
  Duration: 00:00:12.72, start: 0.000000, bitrate: 48 kb/s
  Stream #15:0: Audio: mp3 (mp3float), 24000 Hz, mono, fltp, 48 kb/s
[in#16/mp3 @ 0000012421d71800] Estimating duration from bitrate, this may be inaccurate
Input #16, mp3, from 'C:\Users\SHARKG~1.SHA\AppData\Local\Temp\timeline_tts_caet81p2\seg_017.mp3':
  Duration: 00:00:11.02, start: 0.000000, bitrate: 48 kb/s
  Stream #16:0: Audio: mp3 (mp3float), 24000 Hz, mono, fltp, 48 kb/s
[in#17/mp3 @ 0000012421d722c0] Estimating duration from bitrate, this may be inaccurate
Input #17, mp3, from 'C:\Users\SHARKG~1.SHA\AppData\Local\Temp\timeline_tts_caet81p2\seg_018.mp3':
  Duration: 00:00:10.54, start: 0.000000, bitrate: 48 kb/s
  Stream #17:0: Audio: mp3 (mp3float), 24000 Hz, mono, fltp, 48 kb/s
[in#18/mp3 @ 0000012421d72580] Estimating duration from bitrate, this may be inaccurate
Input #18, mp3, from 'C:\Users\SHARKG~1.SHA\AppData\Local\Temp\timeline_tts_caet81p2\seg_019.mp3':
  Duration: 00:00:10.32, start: 0.000000, bitrate: 48 kb/s
  Stream #18:0: Audio: mp3 (mp3float), 24000 Hz, mono, fltp, 48 kb/s
[in#19/mp3 @ 0000012421d71540] Estimating duration from bitrate, this may be inaccurate
Input #19, mp3, from 'C:\Users\SHARKG~1.SHA\AppData\Local\Temp\timeline_tts_caet81p2\seg_020.mp3':
  Duration: 00:00:10.85, start: 0.000000, bitrate: 48 kb/s
  Stream #19:0: Audio: mp3 (mp3float), 24000 Hz, mono, fltp, 48 kb/s
[in#20/mp3 @ 0000012421d72d80] Estimating duration from bitrate, this may be inaccurate
Input #20, mp3, from 'C:\Users\SHARKG~1.SHA\AppData\Local\Temp\timeline_tts_caet81p2\seg_021.mp3':
  Duration: 00:00:11.40, start: 0.000000, bitrate: 48 kb/s
  Stream #20:0: Audio: mp3 (mp3float), 24000 Hz, mono, fltp, 48 kb/s
[in#21/mp3 @ 0000012421d72ac0] Estimating duration from bitrate, this may be inaccurate
Input #21, mp3, from 'C:\Users\SHARKG~1.SHA\AppData\Local\Temp\timeline_tts_caet81p2\seg_022.mp3':
  Duration: 00:00:09.98, start: 0.000000, bitrate: 48 kb/s
  Stream #21:0: Audio: mp3 (mp3float), 24000 Hz, mono, fltp, 48 kb/s
[in#22/mp3 @ 0000012421d71000] Estimating duration from bitrate, this may be inaccurate
Input #22, mp3, from 'C:\Users\SHARKG~1.SHA\AppData\Local\Temp\timeline_tts_caet81p2\seg_023.mp3':
  Duration: 00:00:11.76, start: 0.000000, bitrate: 48 kb/s
  Stream #22:0: Audio: mp3 (mp3float), 24000 Hz, mono, fltp, 48 kb/s
[in#23/mp3 @ 0000012421d6ffc0] Estimating duration from bitrate, this may be inaccurate
Input #23, mp3, from 'C:\Users\SHARKG~1.SHA\AppData\Local\Temp\timeline_tts_caet81p2\seg_024.mp3':
  Duration: 00:00:12.82, start: 0.000000, bitrate: 48 kb/s
  Stream #23:0: Audio: mp3 (mp3float), 24000 Hz, mono, fltp, 48 kb/s
[in#24/mp3 @ 0000012421d73040] Estimating duration from bitrate, this may be inaccurate
Input #24, mp3, from 'C:\Users\SHARKG~1.SHA\AppData\Local\Temp\timeline_tts_caet81p2\seg_025.mp3':
  Duration: 00:00:10.92, start: 0.000000, bitrate: 48 kb/s
  Stream #24:0: Audio: mp3 (mp3float), 24000 Hz, mono, fltp, 48 kb/s
[in#25/mp3 @ 0000012421d73300] Estimating duration from bitrate, this may be inaccurate
Input #25, mp3, from 'C:\Users\SHARKG~1.SHA\AppData\Local\Temp\timeline_tts_caet81p2\seg_026.mp3':
  Duration: 00:00:11.26, start: 0.000000, bitrate: 48 kb/s
  Stream #25:0: Audio: mp3 (mp3float), 24000 Hz, mono, fltp, 48 kb/s
[in#26/mp3 @ 0000012421d73b00] Estimating duration from bitrate, this may be inaccurate
Input #26, mp3, from 'C:\Users\SHARKG~1.SHA\AppData\Local\Temp\timeline_tts_caet81p2\seg_027.mp3':
  Duration: 00:00:11.47, start: 0.000000, bitrate: 48 kb/s
  Stream #26:0: Audio: mp3 (mp3float), 24000 Hz, mono, fltp, 48 kb/s
[in#27/mp3 @ 0000012421d70d40] Estimating duration from bitrate, this may be inaccurate
Input #27, mp3, from 'C:\Users\SHARKG~1.SHA\AppData\Local\Temp\timeline_tts_caet81p2\seg_028.mp3':
  Duration: 00:00:11.83, start: 0.000000, bitrate: 48 kb/s
  Stream #27:0: Audio: mp3 (mp3float), 24000 Hz, mono, fltp, 48 kb/s
[in#28/mp3 @ 0000012421d71d80] Estimating duration from bitrate, this may be inaccurate
Input #28, mp3, from 'C:\Users\SHARKG~1.SHA\AppData\Local\Temp\timeline_tts_caet81p2\seg_029.mp3':
  Duration: 00:00:10.87, start: 0.000000, bitrate: 48 kb/s
  Stream #28:0: Audio: mp3 (mp3float), 24000 Hz, mono, fltp, 48 kb/s
[in#29/mp3 @ 0000012421d73580] Estimating duration from bitrate, this may be inaccurate
Input #29, mp3, from 'C:\Users\SHARKG~1.SHA\AppData\Local\Temp\timeline_tts_caet81p2\seg_030.mp3':
  Duration: 00:00:10.99, start: 0.000000, bitrate: 48 kb/s
  Stream #29:0: Audio: mp3 (mp3float), 24000 Hz, mono, fltp, 48 kb/s
[in#30/mp3 @ 0000012421d70280] Estimating duration from bitrate, this may be inaccurate
Input #30, mp3, from 'C:\Users\SHARKG~1.SHA\AppData\Local\Temp\timeline_tts_caet81p2\seg_031.mp3':
  Duration: 00:00:12.55, start: 0.000000, bitrate: 48 kb/s
  Stream #30:0: Audio: mp3 (mp3float), 24000 Hz, mono, fltp, 48 kb/s
[in#31/mp3 @ 0000012421d70800] Estimating duration from bitrate, this may be inaccurate
Input #31, mp3, from 'C:\Users\SHARKG~1.SHA\AppData\Local\Temp\timeline_tts_caet81p2\seg_032.mp3':
  Duration: 00:00:11.66, start: 0.000000, bitrate: 48 kb/s
  Stream #31:0: Audio: mp3 (mp3float), 24000 Hz, mono, fltp, 48 kb/s
[in#32/mp3 @ 0000012421d70540] Estimating duration from bitrate, this may be inaccurate
Input #32, mp3, from 'C:\Users\SHARKG~1.SHA\AppData\Local\Temp\timeline_tts_caet81p2\seg_033.mp3':
  Duration: 00:00:11.81, start: 0.000000, bitrate: 48 kb/s
  Stream #32:0: Audio: mp3 (mp3float), 24000 Hz, mono, fltp, 48 kb/s
[in#33/mp3 @ 0000012421d712c0] Estimating duration from bitrate, this may be inaccurate
Input #33, mp3, from 'C:\Users\SHARKG~1.SHA\AppData\Local\Temp\timeline_tts_caet81p2\seg_034.mp3':
  Duration: 00:00:11.30, start: 0.000000, bitrate: 48 kb/s
  Stream #33:0: Audio: mp3 (mp3float), 24000 Hz, mono, fltp, 48 kb/s
[in#34/mp3 @ 0000012421fae180] Estimating duration from bitrate, this may be inaccurate
Input #34, mp3, from 'C:\Users\SHARKG~1.SHA\AppData\Local\Temp\timeline_tts_caet81p2\seg_035.mp3':
  Duration: 00:00:12.10, start: 0.000000, bitrate: 48 kb/s
  Stream #34:0: Audio: mp3 (mp3float), 24000 Hz, mono, fltp, 48 kb/s
[in#35/mp3 @ 0000012421faff00] Estimating duration from bitrate, this may be inaccurate
Input #35, mp3, from 'C:\Users\SHARKG~1.SHA\AppData\Local\Temp\timeline_tts_caet81p2\seg_036.mp3':
  Duration: 00:00:11.09, start: 0.000000, bitrate: 48 kb/s
  Stream #35:0: Audio: mp3 (mp3float), 24000 Hz, mono, fltp, 48 kb/s
[in#36/mp3 @ 0000012421fb1480] Estimating duration from bitrate, this may be inaccurate
Input #36, mp3, from 'C:\Users\SHARKG~1.SHA\AppData\Local\Temp\timeline_tts_caet81p2\seg_037.mp3':
  Duration: 00:00:11.74, start: 0.000000, bitrate: 48 kb/s
  Stream #36:0: Audio: mp3 (mp3float), 24000 Hz, mono, fltp, 48 kb/s
[in#37/mp3 @ 0000012421fb1740] Estimating duration from bitrate, this may be inaccurate
Input #37, mp3, from 'C:\Users\SHARKG~1.SHA\AppData\Local\Temp\timeline_tts_caet81p2\seg_038.mp3':
  Duration: 00:00:13.06, start: 0.000000, bitrate: 48 kb/s
  Stream #37:0: Audio: mp3 (mp3float), 24000 Hz, mono, fltp, 48 kb/s
[in#38/mp3 @ 0000012421faef00] Estimating duration from bitrate, this may be inaccurate
Input #38, mp3, from 'C:\Users\SHARKG~1.SHA\AppData\Local\Temp\timeline_tts_caet81p2\seg_039.mp3':
  Duration: 00:00:10.87, start: 0.000000, bitrate: 48 kb/s
  Stream #38:0: Audio: mp3 (mp3float), 24000 Hz, mono, fltp, 48 kb/s
[in#39/mp3 @ 0000012421fb0f40] Estimating duration from bitrate, this may be inaccurate
Input #39, mp3, from 'C:\Users\SHARKG~1.SHA\AppData\Local\Temp\timeline_tts_caet81p2\seg_040.mp3':
  Duration: 00:00:09.53, start: 0.000000, bitrate: 48 kb/s
  Stream #39:0: Audio: mp3 (mp3float), 24000 Hz, mono, fltp, 48 kb/s
[in#40/mp3 @ 0000012421faec40] Estimating duration from bitrate, this may be inaccurate
Input #40, mp3, from 'C:\Users\SHARKG~1.SHA\AppData\Local\Temp\timeline_tts_caet81p2\seg_041.mp3':
  Duration: 00:00:11.98, start: 0.000000, bitrate: 48 kb/s
  Stream #40:0: Audio: mp3 (mp3float), 24000 Hz, mono, fltp, 48 kb/s
[in#41/mp3 @ 0000012421faf1c0] Estimating duration from bitrate, this may be inaccurate
Input #41, mp3, from 'C:\Users\SHARKG~1.SHA\AppData\Local\Temp\timeline_tts_caet81p2\seg_042.mp3':
  Duration: 00:00:11.93, start: 0.000000, bitrate: 48 kb/s
  Stream #41:0: Audio: mp3 (mp3float), 24000 Hz, mono, fltp, 48 kb/s
[in#42/mp3 @ 0000012421faf440] Estimating duration from bitrate, this may be inaccurate
Input #42, mp3, from 'C:\Users\SHARKG~1.SHA\AppData\Local\Temp\timeline_tts_caet81p2\seg_043.mp3':
  Duration: 00:00:11.81, start: 0.000000, bitrate: 48 kb/s
  Stream #42:0: Audio: mp3 (mp3float), 24000 Hz, mono, fltp, 48 kb/s
[in#43/mp3 @ 0000012421fae440] Estimating duration from bitrate, this may be inaccurate
Input #43, mp3, from 'C:\Users\SHARKG~1.SHA\AppData\Local\Temp\timeline_tts_caet81p2\seg_044.mp3':
  Duration: 00:00:11.74, start: 0.000000, bitrate: 48 kb/s
  Stream #43:0: Audio: mp3 (mp3float), 24000 Hz, mono, fltp, 48 kb/s
[in#44/mp3 @ 0000012421faf700] Estimating duration from bitrate, this may be inaccurate
Input #44, mp3, from 'C:\Users\SHARKG~1.SHA\AppData\Local\Temp\timeline_tts_caet81p2\seg_045.mp3':
  Duration: 00:00:12.77, start: 0.000000, bitrate: 48 kb/s
  Stream #44:0: Audio: mp3 (mp3float), 24000 Hz, mono, fltp, 48 kb/s
[in#45/mp3 @ 0000012421fb01c0] Estimating duration from bitrate, this may be inaccurate
Input #45, mp3, from 'C:\Users\SHARKG~1.SHA\AppData\Local\Temp\timeline_tts_caet81p2\seg_046.mp3':
  Duration: 00:00:12.89, start: 0.000000, bitrate: 48 kb/s
  Stream #45:0: Audio: mp3 (mp3float), 24000 Hz, mono, fltp, 48 kb/s
[in#46/mp3 @ 0000012421fb0c80] Estimating duration from bitrate, this may be inaccurate
Input #46, mp3, from 'C:\Users\SHARKG~1.SHA\AppData\Local\Temp\timeline_tts_caet81p2\seg_047.mp3':
  Duration: 00:00:06.02, start: 0.000000, bitrate: 48 kb/s
  Stream #46:0: Audio: mp3 (mp3float), 24000 Hz, mono, fltp, 48 kb/s
Stream mapping:
  Stream #0:0 (mp3float) -> adelay:default
  Stream #1:0 (mp3float) -> adelay:default
  Stream #2:0 (mp3float) -> adelay:default
  Stream #3:0 (mp3float) -> adelay:default
  Stream #4:0 (mp3float) -> adelay:default
  Stream #5:0 (mp3float) -> adelay:default
  Stream #6:0 (mp3float) -> adelay:default
  Stream #7:0 (mp3float) -> adelay:default
  Stream #8:0 (mp3float) -> adelay:default
  Stream #9:0 (mp3float) -> adelay:default
  Stream #10:0 (mp3float) -> adelay:default
  Stream #11:0 (mp3float) -> adelay:default
  Stream #12:0 (mp3float) -> adelay:default
  Stream #13:0 (mp3float) -> adelay:default
  Stream #14:0 (mp3float) -> adelay:default
  Stream #15:0 (mp3float) -> adelay:default
  Stream #16:0 (mp3float) -> adelay:default
  Stream #17:0 (mp3float) -> adelay:default
  Stream #18:0 (mp3float) -> adelay:default
  Stream #19:0 (mp3float) -> adelay:default
  Stream #20:0 (mp3float) -> adelay:default
  Stream #21:0 (mp3float) -> adelay:default
  Stream #22:0 (mp3float) -> adelay:default
  Stream #23:0 (mp3float) -> adelay:default
  Stream #24:0 (mp3float) -> adelay:default
  Stream #25:0 (mp3float) -> adelay:default
  Stream #26:0 (mp3float) -> adelay:default
  Stream #27:0 (mp3float) -> adelay:default
  Stream #28:0 (mp3float) -> adelay:default
  Stream #29:0 (mp3float) -> adelay:default
  Stream #30:0 (mp3float) -> adelay:default
  Stream #31:0 (mp3float) -> adelay:default
  Stream #32:0 (mp3float) -> adelay:default
  Stream #33:0 (mp3float) -> adelay:default
  Stream #34:0 (mp3float) -> adelay:default
  Stream #35:0 (mp3float) -> adelay:default
  Stream #36:0 (mp3float) -> adelay:default
  Stream #37:0 (mp3float) -> adelay:default
  Stream #38:0 (mp3float) -> adelay:default
  Stream #39:0 (mp3float) -> adelay:default
  Stream #40:0 (mp3float) -> adelay:default
  Stream #41:0 (mp3float) -> adelay:default
  Stream #42:0 (mp3float) -> adelay:default
  Stream #43:0 (mp3float) -> adelay:default
  Stream #44:0 (mp3float) -> adelay:default
  Stream #45:0 (mp3float) -> adelay:default
  Stream #46:0 (mp3float) -> adelay:default
  apad:default -> Stream #0:0 (libmp3lame)
Press [q] to stop, [?] for help
Output #0, mp3, to 'G:\workspace\yinghe-shijie\outputs\audio\同样四个轮子，F1为啥能快这么多？_时间线01_等长_Yunyang.mp3':
  Metadata:
    TSSE            : Lavf62.12.100
  Stream #0:0: Audio: mp3, 44100 Hz, stereo, fltp, 192 kb/s
    Metadata:
      encoder         : Lavc62.28.100 libmp3lame
size=      48KiB time=00:00:02.01 bitrate= 194.6kbits/s speed=3.92x elapsed=0:00:00.51    size=     768KiB time=00:00:36.38 bitrate= 172.9kbits/s speed=35.3x elapsed=0:00:01.03    size=    1792KiB time=00:01:21.76 bitrate= 179.5kbits/s speed=52.7x elapsed=0:00:01.55    size=    2816KiB time=00:02:08.00 bitrate= 180.2kbits/s speed=61.9x elapsed=0:00:02.06    size=    3840KiB time=00:02:51.28 bitrate= 183.7kbits/s speed=66.6x elapsed=0:00:02.57    size=    4864KiB time=00:03:31.54 bitrate= 188.4kbits/s speed=68.3x elapsed=0:00:03.09    size=    5632KiB time=00:04:03.93 bitrate= 189.1kbits/s speed=67.5x elapsed=0:00:03.61    size=    6400KiB time=00:04:41.52 bitrate= 186.2kbits/s speed=68.1x elapsed=0:00:04.13    size=    7680KiB time=00:05:31.57 bitrate= 189.7kbits/s speed=71.3x elapsed=0:00:04.64    size=    8448KiB time=00:06:11.30 bitrate= 186.4kbits/s speed=71.9x elapsed=0:00:05.16    size=    9728KiB time=00:07:04.15 bitrate= 187.9kbits/s speed=74.8x elapsed=0:00:05.66    size=   11008KiB time=00:07:55.84 bitrate= 189.5kbits/s speed=76.9x elapsed=0:00:06.18    size=   12032KiB time=00:08:40.30 bitrate= 189.4kbits/s speed=77.6x elapsed=0:00:06.70    size=   13056KiB time=00:09:23.43 bitrate= 189.8kbits/s speed=78.1x elapsed=0:00:07.21    size=   14080KiB time=00:10:04.68 bitrate= 190.7kbits/s speed=78.2x elapsed=0:00:07.73    size=   15104KiB time=00:10:51.78 bitrate= 189.8kbits/s speed=  79x elapsed=0:00:08.25    size=   16128KiB time=00:11:37.65 bitrate= 189.4kbits/s speed=79.5x elapsed=0:00:08.77    size=   17152KiB time=00:12:18.48 bitrate= 190.3kbits/s speed=79.6x elapsed=0:00:09.27    size=   18176KiB time=00:13:04.01 bitrate= 189.9kbits/s speed=  80x elapsed=0:00:09.79    size=   18944KiB time=00:13:38.57 bitrate= 189.6kbits/s speed=79.3x elapsed=0:00:10.31    size=   19712KiB time=00:14:10.39 bitrate= 189.9kbits/s speed=78.5x elapsed=0:00:10.83    size=   20480KiB time=00:14:43.22 bitrate= 190.0kbits/s speed=77.8x elapsed=0:00:11.35    size=   21760KiB time=00:15:36.59 bitrate= 190.3kbits/s speed=  79x elapsed=0:00:11.85    size=   23040KiB time=00:16:31.55 bitrate= 190.4kbits/s speed=80.1x elapsed=0:00:12.37    size=   24064KiB time=00:17:12.98 bitrate= 190.8kbits/s speed=80.1x elapsed=0:00:12.89    size=   25344KiB time=00:18:02.88 bitrate= 191.7kbits/s speed=80.8x elapsed=0:00:13.40    size=   26368KiB time=00:18:52.53 bitrate= 190.7kbits/s speed=81.3x elapsed=0:00:13.92    size=   27392KiB time=00:19:35.53 bitrate= 190.9kbits/s speed=81.4x elapsed=0:00:14.44    size=   28672KiB time=00:20:27.41 bitrate= 191.4kbits/s speed=82.1x elapsed=0:00:14.94    size=   29440KiB time=00:21:06.18 bitrate= 190.5kbits/s speed=81.9x elapsed=0:00:15.46    size=   30720KiB time=00:21:57.69 bitrate= 191.0kbits/s speed=82.4x elapsed=0:00:15.98    size=   31744KiB time=00:22:40.61 bitrate= 191.1kbits/s speed=82.4x elapsed=0:00:16.50    [out#0/mp3 @ 000001242209de40] video:0KiB audio:32630KiB subtitle:0KiB other streams:0KiB global headers:0KiB muxing overhead: 0.002008%
size=   32631KiB time=00:23:12.17 bitrate= 192.0kbits/s speed=82.4x elapsed=0:00:16.90    
